<svg width="16" height="15" viewBox="0 0 16 15" fill="none" xmlns="http://www.w3.org/2000/svg">
<path d="M7.94446 2.93154L7.55739 3.24804L7.94446 3.72142L8.33153 3.24804L7.94446 2.93154ZM6.00001 0.999962L5.78119 1.44953L5.78119 1.44953L6.00001 0.999962ZM3.00001 0.999962L2.83367 0.528445L3.00001 0.999962ZM1.00001 2.99996L1.48508 3.12123L1.00001 2.99996ZM2.24363 9.14383L2.63701 8.83521L2.63701 8.83521L2.24363 9.14383ZM8.00001 14L7.70388 14.4028L8.0035 14.6231L8.30063 14.3995L8.00001 14ZM13.6304 9.16281L14.0234 9.47188L14.0234 9.47188L13.6304 9.16281ZM14.8889 2.99996L15.374 2.87869L15.374 2.87869L14.8889 2.99996ZM12.8889 0.999962L12.7226 1.47148L12.7226 1.47148L12.8889 0.999962ZM9.8889 0.999962L9.67008 0.550389L9.67008 0.550389L9.8889 0.999962ZM8.33153 2.61503C8.19837 2.45219 7.84716 2.02909 7.45402 1.60898C7.25767 1.39917 7.04592 1.18478 6.84221 1.00211C6.64705 0.827117 6.42754 0.651973 6.21884 0.550389L5.78119 1.44953C5.85837 1.4871 5.99229 1.58315 6.17461 1.74663C6.34837 1.90244 6.53814 2.09381 6.72387 2.29227C7.09487 2.68872 7.43 3.09226 7.55739 3.24804L8.33153 2.61503ZM6.21884 0.55039C5.9458 0.417489 5.43556 0.299807 4.85731 0.265695C4.2648 0.230742 3.53964 0.279383 2.83367 0.528445L3.16636 1.47148C3.71414 1.27823 4.29924 1.23451 4.79842 1.26396C5.31185 1.29425 5.67474 1.39772 5.78119 1.44953L6.21884 0.55039ZM2.83367 0.528445C2.15419 0.768157 1.63475 1.08097 1.25083 1.4862C0.863998 1.89449 0.642889 2.3669 0.514941 2.87869L1.48508 3.12123C1.58096 2.73771 1.73298 2.43127 1.97676 2.17397C2.22343 1.91361 2.59208 1.67408 3.16636 1.47148L2.83367 0.528445ZM0.514941 2.87869C0.301872 3.73097 0.11845 4.72765 0.253231 5.84124C0.388932 6.96242 0.842622 8.1681 1.85024 9.45245L2.63701 8.83521C1.73381 7.68395 1.35816 6.64785 1.24599 5.72108C1.1329 4.78671 1.28308 3.92926 1.48508 3.12123L0.514941 2.87869ZM1.85024 9.45245C2.47293 10.2462 3.96397 11.498 5.2449 12.5168C5.89609 13.0348 6.5104 13.5059 6.96172 13.8475C7.18747 14.0183 7.37266 14.1569 7.50157 14.2529C7.56602 14.3009 7.61642 14.3382 7.65079 14.3637C7.66798 14.3764 7.68116 14.3861 7.69009 14.3927C7.69455 14.396 7.69796 14.3985 7.70027 14.4002C7.70142 14.401 7.7023 14.4017 7.70291 14.4021C7.70321 14.4023 7.70344 14.4025 7.7036 14.4026C7.70369 14.4027 7.70376 14.4027 7.7038 14.4028C7.70385 14.4028 7.70388 14.4028 8.00001 14C8.29614 13.5971 8.29614 13.5971 8.29612 13.5971C8.29609 13.5971 8.29606 13.597 8.296 13.597C8.29588 13.5969 8.2957 13.5968 8.29544 13.5966C8.29493 13.5962 8.29414 13.5956 8.29308 13.5948C8.29097 13.5933 8.28776 13.5909 8.28349 13.5878C8.27494 13.5815 8.26216 13.572 8.24539 13.5596C8.21184 13.5348 8.16232 13.4981 8.09878 13.4508C7.97169 13.3562 7.7886 13.2192 7.56518 13.0501C7.11814 12.7118 6.51052 12.2457 5.86739 11.7342C4.55968 10.694 3.17252 9.51779 2.63701 8.83521L1.85024 9.45245ZM13.2373 8.85374C12.7004 9.53662 11.3414 10.7096 10.0662 11.7449C9.43859 12.2545 8.84646 12.7187 8.41106 13.0556C8.19345 13.224 8.01519 13.3605 7.89149 13.4547C7.82964 13.5018 7.78144 13.5384 7.74879 13.5631C7.73246 13.5755 7.72002 13.5849 7.71171 13.5911C7.70755 13.5943 7.70443 13.5966 7.70237 13.5982C7.70134 13.599 7.70057 13.5995 7.70007 13.5999C7.69982 13.6001 7.69964 13.6002 7.69953 13.6003C7.69947 13.6004 7.69944 13.6004 7.69941 13.6004C7.69939 13.6004 7.69939 13.6004 8.00001 14C8.30063 14.3995 8.30067 14.3995 8.30072 14.3994C8.30076 14.3994 8.30082 14.3994 8.3009 14.3993C8.30106 14.3992 8.30129 14.399 8.30158 14.3988C8.30217 14.3983 8.30303 14.3977 8.30415 14.3968C8.3064 14.3952 8.30971 14.3927 8.31405 14.3894C8.32274 14.3828 8.33556 14.3731 8.35228 14.3605C8.38573 14.3352 8.43477 14.298 8.4975 14.2502C8.62295 14.1546 8.80323 14.0166 9.02308 13.8465C9.46261 13.5063 10.0612 13.0371 10.6965 12.5213C11.9473 11.5058 13.4035 10.2602 14.0234 9.47188L13.2373 8.85374ZM14.4038 3.12123C14.6062 3.93078 14.7555 4.7907 14.6401 5.72806C14.5257 6.658 14.1462 7.698 13.2373 8.85374L14.0234 9.47188C15.0364 8.18368 15.4943 6.97456 15.6326 5.85022C15.7701 4.73329 15.5877 3.73376 15.374 2.87869L14.4038 3.12123ZM12.7226 1.47148C13.2968 1.67408 13.6655 1.91361 13.9122 2.17397C14.1559 2.43127 14.3079 2.73771 14.4038 3.12123L15.374 2.87869C15.246 2.3669 15.0249 1.89449 14.6381 1.4862C14.2542 1.08097 13.7347 0.768157 13.0552 0.528445L12.7226 1.47148ZM10.1077 1.44953C10.2142 1.39772 10.5771 1.29425 11.0905 1.26396C11.5897 1.23451 12.1748 1.27823 12.7226 1.47148L13.0552 0.528445C12.3493 0.279383 11.6241 0.230742 11.0316 0.265695C10.4534 0.299807 9.94312 0.417489 9.67008 0.550389L10.1077 1.44953ZM8.33153 3.24804C8.45891 3.09226 8.79404 2.68872 9.16505 2.29227C9.35077 2.09381 9.54054 1.90244 9.7143 1.74663C9.89662 1.58315 10.0305 1.4871 10.1077 1.44953L9.67008 0.550389C9.46137 0.651973 9.24186 0.827117 9.04671 1.00211C8.84299 1.18478 8.63124 1.39917 8.43489 1.60898C8.04176 2.02909 7.69054 2.45219 7.55739 2.61503L8.33153 3.24804Z" fill="#748592"/>
</svg>
