<svg width="15" height="17" viewBox="0 0 15 17" fill="none" xmlns="http://www.w3.org/2000/svg">
<path d="M7.36109 9.78308C6.68858 9.67343 6.04302 9.35998 5.5245 8.84274C4.20798 7.52946 4.20798 5.40049 5.5245 4.08773L7.81584 1.98463C9.13235 0.671871 11.2661 0.671871 12.5821 1.98463C13.8986 3.29791 13.8986 5.42636 12.5821 6.73911L11.2687 8.08808" stroke="#657888" stroke-linecap="round"/>
<path d="M6.43497 6.41394C7.17386 6.49256 7.89149 6.81428 8.45719 7.37911C9.77371 8.69238 9.77371 10.8213 8.45719 12.1341L5.75364 14.831C4.43712 16.1442 2.30342 16.1442 0.986897 14.831C-0.329103 13.5182 -0.329103 11.3898 0.986897 10.0765L2.43875 8.62876" stroke="#657888" stroke-linecap="round"/>
</svg>
